<svg id="Claim" xmlns="http://www.w3.org/2000/svg" viewBox="0 0 369 189">
  <defs>
    <style>
      .cls-1 {
        fill: #555d63;
      }

      .cls-2 {
        fill: #900;
      }

      .cls-3 {
        fill: none;
      }
    </style>
  </defs>
  <title>GULP-Logo_RGB</title>
  <g>
    <path class="cls-1" d="M272,379.94q-6.34,0-9.92-3.7t-3.58-10.19q0-6.66,3.32-10.47a11.45,11.45,0,0,1,9.12-3.81,11.2,11.2,0,0,1,8.51,3.27q3.12,3.27,3.12,9v3.12H264.48a8.93,8.93,0,0,0,2.14,6.08,7.45,7.45,0,0,0,5.68,2.13,21,21,0,0,0,4.49-.45,23.69,23.69,0,0,0,4.46-1.51v4.69a17.75,17.75,0,0,1-4.28,1.42A26.26,26.26,0,0,1,272,379.94ZM271,356.14a5.8,5.8,0,0,0-4.41,1.75,8.32,8.32,0,0,0-2,5.09h12.34a7.53,7.53,0,0,0-1.62-5.1A5.54,5.54,0,0,0,271,356.14Z" transform="translate(-250 -206)"/>
    <path class="cls-1" d="M295.46,365.56l-9.12-13.3h6.59l6.19,9.52,6.25-9.52h6.54l-9.14,13.3,9.61,13.89h-6.54l-6.71-10.18-6.69,10.18H285.9Z" transform="translate(-250 -206)"/>
    <path class="cls-1" d="M331.19,379.94a9.52,9.52,0,0,1-8-3.71h-0.34q0.34,3.44.34,4.18v11.14H317.4V352.26h4.67q0.2,0.77.81,3.64h0.29a9.05,9.05,0,0,1,8.11-4.13,9.44,9.44,0,0,1,7.93,3.69q2.84,3.69,2.84,10.35t-2.89,10.4A9.52,9.52,0,0,1,331.19,379.94Zm-1.4-23.45q-3.44,0-5,2t-1.59,6.44v0.86q0,5,1.57,7.19t5.14,2.22a5.21,5.21,0,0,0,4.62-2.46,12.7,12.7,0,0,0,1.62-7q0-4.57-1.61-6.92A5.37,5.37,0,0,0,329.79,356.49Z" transform="translate(-250 -206)"/>
    <path class="cls-1" d="M360.89,379.94q-6.34,0-9.92-3.7t-3.58-10.19q0-6.66,3.32-10.47a11.45,11.45,0,0,1,9.12-3.81,11.2,11.2,0,0,1,8.51,3.27q3.12,3.27,3.12,9v3.12H353.34a8.93,8.93,0,0,0,2.14,6.08,7.44,7.44,0,0,0,5.68,2.13,21,21,0,0,0,4.49-.45,23.68,23.68,0,0,0,4.46-1.51v4.69a17.75,17.75,0,0,1-4.28,1.42A26.26,26.26,0,0,1,360.89,379.94Zm-1.06-23.8a5.8,5.8,0,0,0-4.41,1.75,8.32,8.32,0,0,0-2,5.09h12.34a7.53,7.53,0,0,0-1.62-5.1A5.55,5.55,0,0,0,359.83,356.14Z" transform="translate(-250 -206)"/>
    <path class="cls-1" d="M392.07,351.77a14,14,0,0,1,2.88.25l-0.57,5.38a10.91,10.91,0,0,0-2.56-.29,7.4,7.4,0,0,0-5.62,2.26,8.18,8.18,0,0,0-2.15,5.88v14.21h-5.78V352.26h4.52l0.76,4.8h0.3a10.75,10.75,0,0,1,3.53-3.86A8.39,8.39,0,0,1,392.07,351.77Z" transform="translate(-250 -206)"/>
    <path class="cls-1" d="M410.36,375.27a14,14,0,0,0,4.23-.66V379a11.65,11.65,0,0,1-2.47.7,17,17,0,0,1-3.13.28q-8.21,0-8.21-8.65V356.64h-3.71v-2.56l4-2.11,2-5.75h3.56v6h7.74v4.38h-7.74v14.55a4.08,4.08,0,0,0,1,3.08A3.8,3.8,0,0,0,410.36,375.27Z" transform="translate(-250 -206)"/>
    <path class="cls-1" d="M438.54,371.71a7.11,7.11,0,0,1-2.9,6.11q-2.9,2.13-8.31,2.13a19.66,19.66,0,0,1-8.73-1.65v-5a21.4,21.4,0,0,0,8.92,2.21q5.33,0,5.33-3.22a2.55,2.55,0,0,0-.59-1.72,7,7,0,0,0-1.94-1.43,33.76,33.76,0,0,0-3.76-1.67q-4.7-1.82-6.35-3.64a6.73,6.73,0,0,1-1.66-4.72,6.19,6.19,0,0,1,2.82-5.42,13.34,13.34,0,0,1,7.66-1.93,21.69,21.69,0,0,1,9.07,1.94l-1.87,4.35a20.16,20.16,0,0,0-7.4-1.82q-4.57,0-4.57,2.61a2.62,2.62,0,0,0,1.19,2.16,26.2,26.2,0,0,0,5.2,2.43,23.94,23.94,0,0,1,4.89,2.38A6.62,6.62,0,0,1,438.54,371.71Z" transform="translate(-250 -206)"/>
    <path class="cls-1" d="M477.54,379.45l-0.81-3.57h-0.29a8.16,8.16,0,0,1-3.43,3,11.48,11.48,0,0,1-5.08,1.08q-4.94,0-7.37-2.46T458.12,370V352.26h5.83V369a7.26,7.26,0,0,0,1.28,4.68,4.88,4.88,0,0,0,4,1.56q3.64,0,5.35-2.18t1.71-7.29V352.26h5.8v27.19h-4.55Z" transform="translate(-250 -206)"/>
    <path class="cls-1" d="M514.75,379.45H509V362.73a7.32,7.32,0,0,0-1.27-4.69,4.89,4.89,0,0,0-4-1.55q-3.66,0-5.36,2.16t-1.7,7.25v13.54h-5.78V352.26h4.52l0.81,3.57h0.29a8.05,8.05,0,0,1,3.49-3,11.69,11.69,0,0,1,5-1.06q9.79,0,9.79,10v17.73Z" transform="translate(-250 -206)"/>
    <path class="cls-1" d="M522.95,345.06a3.2,3.2,0,0,1,.85-2.38,3.31,3.31,0,0,1,2.42-.84,3.24,3.24,0,0,1,2.37.84,3.19,3.19,0,0,1,.85,2.38,3.13,3.13,0,0,1-.85,2.32,3.2,3.2,0,0,1-2.37.85,3.27,3.27,0,0,1-2.42-.85A3.14,3.14,0,0,1,522.95,345.06Zm6.12,34.39h-5.78V352.26h5.78v27.19Z" transform="translate(-250 -206)"/>
    <path class="cls-1" d="M548,375.27a14,14,0,0,0,4.23-.66V379a11.56,11.56,0,0,1-2.47.7,17,17,0,0,1-3.13.28q-8.21,0-8.21-8.65V356.64h-3.71v-2.56l4-2.11,2-5.75h3.56v6h7.75v4.38h-7.75v14.55a4.07,4.07,0,0,0,1,3.08A3.8,3.8,0,0,0,548,375.27Z" transform="translate(-250 -206)"/>
    <path class="cls-1" d="M570,379.94q-6.34,0-9.92-3.7t-3.58-10.19q0-6.66,3.32-10.47a11.46,11.46,0,0,1,9.12-3.81,11.2,11.2,0,0,1,8.51,3.27q3.12,3.27,3.12,9v3.12H562.46a8.94,8.94,0,0,0,2.14,6.08,7.45,7.45,0,0,0,5.68,2.13,21,21,0,0,0,4.49-.45,23.72,23.72,0,0,0,4.46-1.51v4.69a17.79,17.79,0,0,1-4.28,1.42A26.27,26.27,0,0,1,570,379.94Zm-1.06-23.8a5.81,5.81,0,0,0-4.41,1.75,8.31,8.31,0,0,0-2,5.09H574.9a7.53,7.53,0,0,0-1.62-5.1A5.55,5.55,0,0,0,568.95,356.14Z" transform="translate(-250 -206)"/>
    <path class="cls-1" d="M596.81,379.94a9.46,9.46,0,0,1-7.94-3.69Q586,372.57,586,365.9t2.89-10.41a9.56,9.56,0,0,1,8-3.72,9.37,9.37,0,0,1,8.16,4h0.3a34.21,34.21,0,0,1-.42-4.62V341.2h5.8v38.25h-4.52l-1-3.57h-0.27A9.23,9.23,0,0,1,596.81,379.94Zm1.55-4.67q3.56,0,5.19-2t1.67-6.5V366q0-5.14-1.67-7.3t-5.23-2.16a5.31,5.31,0,0,0-4.7,2.47,12.67,12.67,0,0,0-1.65,7q0,4.52,1.6,6.89A5.39,5.39,0,0,0,598.36,375.27Z" transform="translate(-250 -206)"/>
  </g>
  <g>
    <path class="cls-2" d="M303.72,254.54h41v56.85A125.2,125.2,0,0,1,304,317.74q-24.39,0-37.69-14.14T253,263.27q0-25.54,14.57-39.75t40.83-14.21a90.27,90.27,0,0,1,18.79,1.88c5.89,1.25,12.55,2.49,16.93,4.41l-0.24,22.7s-17.25-8.62-35.09-7.14c-8.29.69-15,4.23-19.55,9.64s-6.82,13.14-6.82,23.2q0,14.79,6.17,22.54t17.79,7.76A52.14,52.14,0,0,0,318,293.07V276.55H303.72v-22Z" transform="translate(-250 -206)"/>
    <path class="cls-2" d="M450.42,210.82v63.48q0,20.71-11.72,32.07t-33.8,11.36q-21.57,0-33.15-11T360.17,275V210.82h28.64v61.9q0,11.18,4.18,16.23T405.33,294q8.73,0,12.66-5t3.93-16.41V210.82h28.5Z" transform="translate(-250 -206)"/>
    <path class="cls-2" d="M468,316.3V210.82h28.5v82.46H529v23H468Z" transform="translate(-250 -206)"/>
    <path class="cls-2" d="M616.78,244.37q0,17.68-10.42,27.3t-29.62,9.63h-8v35H540.24V210.82h36.5q20,0,30,8.73T616.78,244.37Zm-48,13.71h5.19q6.42,0,10.21-3.61t3.78-10q0-10.68-11.83-10.68h-7.36v24.24Z" transform="translate(-250 -206)"/>
  </g>
  <rect id="_Slice_" data-name="&lt;Slice&gt;" class="cls-3" width="369" height="189"/>
</svg>
